# Blender v2.83.2 OBJ File: ''
# www.blender.org
mtllib coin.mtl
o Cilindro
v 0.000000 -0.050000 -0.500000
v 0.000000 0.050000 -0.500000
v 0.097545 -0.050000 -0.490393
v 0.097545 0.050000 -0.490393
v 0.191342 -0.050000 -0.461940
v 0.191342 0.050000 -0.461940
v 0.277785 -0.050000 -0.415735
v 0.277785 0.050000 -0.415735
v 0.353553 -0.050000 -0.353553
v 0.353553 0.050000 -0.353553
v 0.415735 -0.050000 -0.277785
v 0.415735 0.050000 -0.277785
v 0.461940 -0.050000 -0.191342
v 0.461940 0.050000 -0.191342
v 0.490393 -0.050000 -0.097545
v 0.490393 0.050000 -0.097545
v 0.500000 -0.050000 -0.000000
v 0.500000 0.050000 -0.000000
v 0.490393 -0.050000 0.097545
v 0.490393 0.050000 0.097545
v 0.461940 -0.050000 0.191342
v 0.461940 0.050000 0.191342
v 0.415735 -0.050000 0.277785
v 0.415735 0.050000 0.277785
v 0.353553 -0.050000 0.353553
v 0.353553 0.050000 0.353553
v 0.277785 -0.050000 0.415735
v 0.277785 0.050000 0.415735
v 0.191342 -0.050000 0.461940
v 0.191342 0.050000 0.461940
v 0.097545 -0.050000 0.490393
v 0.097545 0.050000 0.490393
v -0.000000 -0.050000 0.500000
v -0.000000 0.050000 0.500000
v -0.097545 -0.050000 0.490393
v -0.097545 0.050000 0.490393
v -0.191342 -0.050000 0.461940
v -0.191342 0.050000 0.461940
v -0.277785 -0.050000 0.415735
v -0.277785 0.050000 0.415735
v -0.353554 -0.050000 0.353553
v -0.353554 0.050000 0.353553
v -0.415735 -0.050000 0.277785
v -0.415735 0.050000 0.277785
v -0.461940 -0.050000 0.191341
v -0.461940 0.050000 0.191341
v -0.490393 -0.050000 0.097545
v -0.490393 0.050000 0.097545
v -0.500000 -0.050000 -0.000000
v -0.500000 0.050000 -0.000000
v -0.490393 -0.050000 -0.097546
v -0.490393 0.050000 -0.097546
v -0.461940 -0.050000 -0.191342
v -0.461940 0.050000 -0.191342
v -0.415734 -0.050000 -0.277786
v -0.415734 0.050000 -0.277786
v -0.353553 -0.050000 -0.353554
v -0.353553 0.050000 -0.353554
v -0.277785 -0.050000 -0.415735
v -0.277785 0.050000 -0.415735
v -0.191341 -0.050000 -0.461940
v -0.191341 0.050000 -0.461940
v -0.097544 -0.050000 -0.490393
v -0.097544 0.050000 -0.490393
vt 0.924316 0.335997
vt 0.922950 0.314137
vt 0.924316 0.314137
vt 0.922950 0.335997
vt 0.921584 0.314137
vt 0.921584 0.335997
vt 0.920218 0.314137
vt 0.920218 0.335997
vt 0.918851 0.314137
vt 0.918851 0.335997
vt 0.917485 0.314137
vt 0.917485 0.335997
vt 0.916119 0.314137
vt 0.916119 0.335997
vt 0.914753 0.314137
vt 0.914753 0.335997
vt 0.913387 0.314137
vt 0.913387 0.335997
vt 0.912020 0.314137
vt 0.912020 0.335997
vt 0.910654 0.314137
vt 0.910654 0.335997
vt 0.909288 0.314137
vt 0.909288 0.335997
vt 0.907922 0.314137
vt 0.907922 0.335997
vt 0.906555 0.314137
vt 0.906555 0.335997
vt 0.905189 0.314137
vt 0.905189 0.335997
vt 0.903823 0.314137
vt 0.903823 0.335997
vt 0.902457 0.314137
vt 0.902457 0.335997
vt 0.901090 0.314137
vt 0.901090 0.335997
vt 0.899724 0.314137
vt 0.899724 0.335997
vt 0.898358 0.314137
vt 0.898358 0.335997
vt 0.896992 0.314137
vt 0.896992 0.335997
vt 0.895626 0.314137
vt 0.895626 0.335997
vt 0.894259 0.314137
vt 0.894259 0.335997
vt 0.892893 0.314137
vt 0.892893 0.335997
vt 0.891527 0.314137
vt 0.891527 0.335997
vt 0.890161 0.314137
vt 0.890161 0.335997
vt 0.888794 0.314137
vt 0.888794 0.335997
vt 0.887428 0.314137
vt 0.887428 0.335997
vt 0.886062 0.314137
vt 0.886062 0.335997
vt 0.884696 0.314137
vt 0.884696 0.335997
vt 0.883329 0.314137
vt 0.881833 0.307223
vt 0.887511 0.293514
vt 0.901221 0.299192
vt 0.883329 0.335997
vt 0.881963 0.314137
vt 0.881963 0.335997
vt 0.880597 0.314137
vt 0.923678 0.305254
vt 0.915434 0.292916
vt 0.903095 0.301160
vt 0.895542 0.312901
vt 0.893574 0.313499
vt 0.891527 0.313700
vt 0.889480 0.313499
vt 0.887511 0.312901
vt 0.885697 0.311932
vt 0.884107 0.310627
vt 0.882802 0.309037
vt 0.881236 0.305255
vt 0.881034 0.303207
vt 0.881236 0.301160
vt 0.881833 0.299192
vt 0.882802 0.297378
vt 0.884107 0.295788
vt 0.885697 0.294483
vt 0.889480 0.292916
vt 0.891527 0.292715
vt 0.893574 0.292916
vt 0.895542 0.293514
vt 0.897356 0.294483
vt 0.898946 0.295788
vt 0.900251 0.297378
vt 0.901818 0.301160
vt 0.902020 0.303207
vt 0.901818 0.305254
vt 0.901221 0.307223
vt 0.900251 0.309037
vt 0.898946 0.310627
vt 0.897356 0.311932
vt 0.880597 0.335997
vt 0.911340 0.313499
vt 0.913387 0.313700
vt 0.915434 0.313499
vt 0.917402 0.312901
vt 0.919216 0.311932
vt 0.920806 0.310627
vt 0.922111 0.309037
vt 0.923081 0.307223
vt 0.923879 0.303207
vt 0.923678 0.301160
vt 0.923081 0.299192
vt 0.922111 0.297378
vt 0.920806 0.295788
vt 0.919216 0.294483
vt 0.917402 0.293514
vt 0.913387 0.292715
vt 0.911340 0.292916
vt 0.909371 0.293514
vt 0.907557 0.294483
vt 0.905967 0.295788
vt 0.904662 0.297378
vt 0.903693 0.299192
vt 0.902894 0.303207
vt 0.903095 0.305255
vt 0.903693 0.307223
vt 0.904662 0.309037
vt 0.905967 0.310627
vt 0.907557 0.311932
vt 0.909371 0.312901
vn 0.0980 0.0000 -0.9952
vn 0.2903 0.0000 -0.9569
vn 0.4714 0.0000 -0.8819
vn 0.6344 0.0000 -0.7730
vn 0.7730 0.0000 -0.6344
vn 0.8819 0.0000 -0.4714
vn 0.9569 0.0000 -0.2903
vn 0.9952 0.0000 -0.0980
vn 0.9952 0.0000 0.0980
vn 0.9569 0.0000 0.2903
vn 0.8819 0.0000 0.4714
vn 0.7730 0.0000 0.6344
vn 0.6344 0.0000 0.7730
vn 0.4714 0.0000 0.8819
vn 0.2903 0.0000 0.9569
vn 0.0980 0.0000 0.9952
vn -0.0980 0.0000 0.9952
vn -0.2903 0.0000 0.9569
vn -0.4714 0.0000 0.8819
vn -0.6344 0.0000 0.7730
vn -0.7730 0.0000 0.6344
vn -0.8819 0.0000 0.4714
vn -0.9569 0.0000 0.2903
vn -0.9952 0.0000 0.0980
vn -0.9952 0.0000 -0.0980
vn -0.9569 0.0000 -0.2903
vn -0.8819 0.0000 -0.4714
vn -0.7730 0.0000 -0.6344
vn -0.6344 0.0000 -0.7730
vn -0.4714 0.0000 -0.8819
vn 0.0000 1.0000 0.0000
vn -0.2903 0.0000 -0.9569
vn -0.0980 0.0000 -0.9952
vn 0.0000 -1.0000 0.0000
usemtl None
s off
f 2/1/1 3/2/1 1/3/1
f 4/4/2 5/5/2 3/2/2
f 6/6/3 7/7/3 5/5/3
f 8/8/4 9/9/4 7/7/4
f 10/10/5 11/11/5 9/9/5
f 12/12/6 13/13/6 11/11/6
f 14/14/7 15/15/7 13/13/7
f 16/16/8 17/17/8 15/15/8
f 18/18/9 19/19/9 17/17/9
f 20/20/10 21/21/10 19/19/10
f 22/22/11 23/23/11 21/21/11
f 24/24/12 25/25/12 23/23/12
f 26/26/13 27/27/13 25/25/13
f 28/28/14 29/29/14 27/27/14
f 30/30/15 31/31/15 29/29/15
f 32/32/16 33/33/16 31/31/16
f 34/34/17 35/35/17 33/33/17
f 36/36/18 37/37/18 35/35/18
f 38/38/19 39/39/19 37/37/19
f 40/40/20 41/41/20 39/39/20
f 42/42/21 43/43/21 41/41/21
f 44/44/22 45/45/22 43/43/22
f 46/46/23 47/47/23 45/45/23
f 48/48/24 49/49/24 47/47/24
f 50/50/25 51/51/25 49/49/25
f 52/52/26 53/53/26 51/51/26
f 54/54/27 55/55/27 53/53/27
f 56/56/28 57/57/28 55/55/28
f 58/58/29 59/59/29 57/57/29
f 60/60/30 61/61/30 59/59/30
f 54/62/31 38/63/31 22/64/31
f 62/65/32 63/66/32 61/61/32
f 64/67/33 1/68/33 63/66/33
f 15/69/34 31/70/34 47/71/34
f 2/1/1 4/4/1 3/2/1
f 4/4/2 6/6/2 5/5/2
f 6/6/3 8/8/3 7/7/3
f 8/8/4 10/10/4 9/9/4
f 10/10/5 12/12/5 11/11/5
f 12/12/6 14/14/6 13/13/6
f 14/14/7 16/16/7 15/15/7
f 16/16/8 18/18/8 17/17/8
f 18/18/9 20/20/9 19/19/9
f 20/20/10 22/22/10 21/21/10
f 22/22/11 24/24/11 23/23/11
f 24/24/12 26/26/12 25/25/12
f 26/26/13 28/28/13 27/27/13
f 28/28/14 30/30/14 29/29/14
f 30/30/15 32/32/15 31/31/15
f 32/32/16 34/34/16 33/33/16
f 34/34/17 36/36/17 35/35/17
f 36/36/18 38/38/18 37/37/18
f 38/38/19 40/40/19 39/39/19
f 40/40/20 42/42/20 41/41/20
f 42/42/21 44/44/21 43/43/21
f 44/44/22 46/46/22 45/45/22
f 46/46/23 48/48/23 47/47/23
f 48/48/24 50/50/24 49/49/24
f 50/50/25 52/52/25 51/51/25
f 52/52/26 54/54/26 53/53/26
f 54/54/27 56/56/27 55/55/27
f 56/56/28 58/58/28 57/57/28
f 58/58/29 60/60/29 59/59/29
f 60/60/30 62/65/30 61/61/30
f 6/72/31 4/73/31 2/74/31
f 2/74/31 64/75/31 6/72/31
f 64/75/31 62/76/31 6/72/31
f 62/76/31 60/77/31 58/78/31
f 58/78/31 56/79/31 54/62/31
f 54/62/31 52/80/31 50/81/31
f 50/81/31 48/82/31 54/62/31
f 48/82/31 46/83/31 54/62/31
f 46/83/31 44/84/31 38/63/31
f 44/84/31 42/85/31 38/63/31
f 42/85/31 40/86/31 38/63/31
f 38/63/31 36/87/31 34/88/31
f 34/88/31 32/89/31 30/90/31
f 30/90/31 28/91/31 26/92/31
f 26/92/31 24/93/31 22/64/31
f 22/64/31 20/94/31 18/95/31
f 18/95/31 16/96/31 22/64/31
f 16/96/31 14/97/31 22/64/31
f 14/97/31 12/98/31 10/99/31
f 10/99/31 8/100/31 6/72/31
f 62/76/31 58/78/31 6/72/31
f 58/78/31 54/62/31 6/72/31
f 38/63/31 34/88/31 22/64/31
f 34/88/31 30/90/31 22/64/31
f 30/90/31 26/92/31 22/64/31
f 14/97/31 10/99/31 22/64/31
f 10/99/31 6/72/31 22/64/31
f 54/62/31 46/83/31 38/63/31
f 6/72/31 54/62/31 22/64/31
f 62/65/32 64/67/32 63/66/32
f 64/67/33 2/101/33 1/68/33
f 63/102/34 1/103/34 3/104/34
f 3/104/34 5/105/34 7/106/34
f 7/106/34 9/107/34 11/108/34
f 11/108/34 13/109/34 7/106/34
f 13/109/34 15/69/34 7/106/34
f 15/69/34 17/110/34 19/111/34
f 19/111/34 21/112/34 15/69/34
f 21/112/34 23/113/34 15/69/34
f 23/113/34 25/114/34 31/70/34
f 25/114/34 27/115/34 31/70/34
f 27/115/34 29/116/34 31/70/34
f 31/70/34 33/117/34 35/118/34
f 35/118/34 37/119/34 39/120/34
f 39/120/34 41/121/34 43/122/34
f 43/122/34 45/123/34 47/71/34
f 47/71/34 49/124/34 51/125/34
f 51/125/34 53/126/34 55/127/34
f 55/127/34 57/128/34 63/102/34
f 57/128/34 59/129/34 63/102/34
f 59/129/34 61/130/34 63/102/34
f 63/102/34 3/104/34 7/106/34
f 31/70/34 35/118/34 47/71/34
f 35/118/34 39/120/34 47/71/34
f 39/120/34 43/122/34 47/71/34
f 47/71/34 51/125/34 63/102/34
f 51/125/34 55/127/34 63/102/34
f 63/102/34 7/106/34 15/69/34
f 15/69/34 23/113/34 31/70/34
f 63/102/34 15/69/34 47/71/34
