# Blender v2.83.2 OBJ File: ''
# www.blender.org
mtllib dot.mtl
o Cylinder
v 0.000000 -0.133280 -0.202776
v 0.000000 0.133280 -0.202776
v 0.039560 -0.133280 -0.198880
v 0.039560 0.133280 -0.198880
v 0.077599 -0.133280 -0.187340
v 0.077599 0.133280 -0.187340
v 0.112656 -0.133280 -0.168602
v 0.112656 0.133280 -0.168602
v 0.143384 -0.133280 -0.143384
v 0.143384 0.133280 -0.143384
v 0.168602 -0.133280 -0.112656
v 0.168602 0.133280 -0.112656
v 0.187340 -0.133280 -0.077599
v 0.187340 0.133280 -0.077599
v 0.198880 -0.133280 -0.039560
v 0.198880 0.133280 -0.039560
v 0.202776 -0.133280 -0.000000
v 0.202776 0.133280 -0.000000
v 0.198880 -0.133280 0.039560
v 0.198880 0.133280 0.039560
v 0.187340 -0.133280 0.077599
v 0.187340 0.133280 0.077599
v 0.168602 -0.133280 0.112656
v 0.168602 0.133280 0.112656
v 0.143384 -0.133280 0.143384
v 0.143384 0.133280 0.143384
v 0.112656 -0.133280 0.168602
v 0.112656 0.133280 0.168602
v 0.077599 -0.133280 0.187340
v 0.077599 0.133280 0.187340
v 0.039560 -0.133280 0.198880
v 0.039560 0.133280 0.198880
v -0.000000 -0.133280 0.202776
v -0.000000 0.133280 0.202776
v -0.039560 -0.133280 0.198880
v -0.039560 0.133280 0.198880
v -0.077599 -0.133280 0.187340
v -0.077599 0.133280 0.187340
v -0.112656 -0.133280 0.168602
v -0.112656 0.133280 0.168602
v -0.143384 -0.133280 0.143384
v -0.143384 0.133280 0.143384
v -0.168602 -0.133280 0.112656
v -0.168602 0.133280 0.112656
v -0.187340 -0.133280 0.077599
v -0.187340 0.133280 0.077599
v -0.198880 -0.133280 0.039559
v -0.198880 0.133280 0.039559
v -0.202776 -0.133280 -0.000000
v -0.202776 0.133280 -0.000000
v -0.198879 -0.133280 -0.039560
v -0.198879 0.133280 -0.039560
v -0.187340 -0.133280 -0.077599
v -0.187340 0.133280 -0.077599
v -0.168602 -0.133280 -0.112656
v -0.168602 0.133280 -0.112656
v -0.143384 -0.133280 -0.143384
v -0.143384 0.133280 -0.143384
v -0.112656 -0.133280 -0.168602
v -0.112656 0.133280 -0.168602
v -0.077599 -0.133280 -0.187341
v -0.077599 0.133280 -0.187341
v -0.039559 -0.133280 -0.198880
v -0.039559 0.133280 -0.198880
vt 0.914742 0.334308
vt 0.913604 0.316094
vt 0.914742 0.316094
vt 0.913604 0.334308
vt 0.912466 0.316094
vt 0.912466 0.334308
vt 0.911327 0.316094
vt 0.911327 0.334308
vt 0.910189 0.316094
vt 0.910189 0.334308
vt 0.909050 0.316094
vt 0.909050 0.334308
vt 0.907912 0.316094
vt 0.907912 0.334308
vt 0.906774 0.316094
vt 0.906774 0.334308
vt 0.905635 0.316094
vt 0.905635 0.334308
vt 0.904497 0.316094
vt 0.904497 0.334308
vt 0.903359 0.316094
vt 0.903359 0.334308
vt 0.902220 0.316094
vt 0.902220 0.334308
vt 0.901082 0.316094
vt 0.901082 0.334308
vt 0.899943 0.316094
vt 0.899943 0.334308
vt 0.898805 0.316094
vt 0.898805 0.334308
vt 0.897667 0.316094
vt 0.897667 0.334308
vt 0.896528 0.316094
vt 0.896528 0.334308
vt 0.895390 0.316094
vt 0.895390 0.334308
vt 0.894251 0.316094
vt 0.894251 0.334308
vt 0.893113 0.316094
vt 0.893113 0.334308
vt 0.891975 0.316094
vt 0.891975 0.334308
vt 0.890836 0.316094
vt 0.890836 0.334308
vt 0.889698 0.316094
vt 0.889698 0.334308
vt 0.888560 0.316094
vt 0.888560 0.334308
vt 0.887421 0.316094
vt 0.887421 0.334308
vt 0.886283 0.316094
vt 0.886283 0.334308
vt 0.885144 0.316094
vt 0.885144 0.334308
vt 0.884006 0.316094
vt 0.884006 0.334308
vt 0.882868 0.316094
vt 0.882868 0.334308
vt 0.881729 0.316094
vt 0.881729 0.334308
vt 0.880591 0.316094
vt 0.879344 0.310333
vt 0.884075 0.298910
vt 0.895498 0.303641
vt 0.880591 0.334308
vt 0.879453 0.316094
vt 0.879453 0.334308
vt 0.878314 0.316094
vt 0.914210 0.308693
vt 0.907341 0.298412
vt 0.897060 0.305281
vt 0.890767 0.315064
vt 0.889127 0.315562
vt 0.887421 0.315730
vt 0.885716 0.315562
vt 0.884075 0.315064
vt 0.882564 0.314256
vt 0.881239 0.313169
vt 0.880152 0.311844
vt 0.878846 0.308693
vt 0.878678 0.306987
vt 0.878846 0.305281
vt 0.879344 0.303641
vt 0.880152 0.302130
vt 0.881239 0.300805
vt 0.882564 0.299718
vt 0.885716 0.298412
vt 0.887421 0.298244
vt 0.889127 0.298412
vt 0.890767 0.298910
vt 0.892278 0.299718
vt 0.893603 0.300805
vt 0.894691 0.302130
vt 0.895996 0.305281
vt 0.896164 0.306987
vt 0.895996 0.308693
vt 0.895498 0.310333
vt 0.894691 0.311844
vt 0.893603 0.313169
vt 0.892278 0.314256
vt 0.878314 0.334308
vt 0.903930 0.315562
vt 0.905635 0.315730
vt 0.907341 0.315562
vt 0.908981 0.315064
vt 0.910492 0.314256
vt 0.911817 0.313169
vt 0.912905 0.311844
vt 0.913713 0.310333
vt 0.914378 0.306987
vt 0.914210 0.305281
vt 0.913713 0.303641
vt 0.912905 0.302130
vt 0.911817 0.300805
vt 0.910492 0.299718
vt 0.908981 0.298910
vt 0.905635 0.298244
vt 0.903930 0.298412
vt 0.902290 0.298910
vt 0.900778 0.299718
vt 0.899453 0.300805
vt 0.898366 0.302130
vt 0.897558 0.303641
vt 0.896892 0.306987
vt 0.897060 0.308693
vt 0.897558 0.310333
vt 0.898366 0.311844
vt 0.899453 0.313169
vt 0.900778 0.314256
vt 0.902290 0.315064
vn 0.0980 0.0000 -0.9952
vn 0.2903 0.0000 -0.9569
vn 0.4714 0.0000 -0.8819
vn 0.6344 0.0000 -0.7730
vn 0.7730 0.0000 -0.6344
vn 0.8819 0.0000 -0.4714
vn 0.9569 0.0000 -0.2903
vn 0.9952 0.0000 -0.0980
vn 0.9952 0.0000 0.0980
vn 0.9569 0.0000 0.2903
vn 0.8819 0.0000 0.4714
vn 0.7730 0.0000 0.6344
vn 0.6344 0.0000 0.7730
vn 0.4714 0.0000 0.8819
vn 0.2903 0.0000 0.9569
vn 0.0980 0.0000 0.9952
vn -0.0980 0.0000 0.9952
vn -0.2903 0.0000 0.9569
vn -0.4714 0.0000 0.8819
vn -0.6344 0.0000 0.7730
vn -0.7730 0.0000 0.6344
vn -0.8819 0.0000 0.4714
vn -0.9569 0.0000 0.2903
vn -0.9952 0.0000 0.0980
vn -0.9952 0.0000 -0.0980
vn -0.9569 0.0000 -0.2903
vn -0.8819 0.0000 -0.4714
vn -0.7730 0.0000 -0.6344
vn -0.6344 0.0000 -0.7730
vn -0.4714 0.0000 -0.8819
vn 0.0000 1.0000 -0.0000
vn -0.2903 0.0000 -0.9569
vn -0.0980 0.0000 -0.9952
vn 0.0000 -1.0000 -0.0000
usemtl None
s off
f 2/1/1 3/2/1 1/3/1
f 4/4/2 5/5/2 3/2/2
f 6/6/3 7/7/3 5/5/3
f 8/8/4 9/9/4 7/7/4
f 10/10/5 11/11/5 9/9/5
f 12/12/6 13/13/6 11/11/6
f 14/14/7 15/15/7 13/13/7
f 16/16/8 17/17/8 15/15/8
f 18/18/9 19/19/9 17/17/9
f 20/20/10 21/21/10 19/19/10
f 22/22/11 23/23/11 21/21/11
f 24/24/12 25/25/12 23/23/12
f 26/26/13 27/27/13 25/25/13
f 28/28/14 29/29/14 27/27/14
f 30/30/15 31/31/15 29/29/15
f 32/32/16 33/33/16 31/31/16
f 34/34/17 35/35/17 33/33/17
f 36/36/18 37/37/18 35/35/18
f 38/38/19 39/39/19 37/37/19
f 40/40/20 41/41/20 39/39/20
f 42/42/21 43/43/21 41/41/21
f 44/44/22 45/45/22 43/43/22
f 46/46/23 47/47/23 45/45/23
f 48/48/24 49/49/24 47/47/24
f 50/50/25 51/51/25 49/49/25
f 52/52/26 53/53/26 51/51/26
f 54/54/27 55/55/27 53/53/27
f 56/56/28 57/57/28 55/55/28
f 58/58/29 59/59/29 57/57/29
f 60/60/30 61/61/30 59/59/30
f 54/62/31 38/63/31 22/64/31
f 62/65/32 63/66/32 61/61/32
f 64/67/33 1/68/33 63/66/33
f 15/69/34 31/70/34 47/71/34
f 2/1/1 4/4/1 3/2/1
f 4/4/2 6/6/2 5/5/2
f 6/6/3 8/8/3 7/7/3
f 8/8/4 10/10/4 9/9/4
f 10/10/5 12/12/5 11/11/5
f 12/12/6 14/14/6 13/13/6
f 14/14/7 16/16/7 15/15/7
f 16/16/8 18/18/8 17/17/8
f 18/18/9 20/20/9 19/19/9
f 20/20/10 22/22/10 21/21/10
f 22/22/11 24/24/11 23/23/11
f 24/24/12 26/26/12 25/25/12
f 26/26/13 28/28/13 27/27/13
f 28/28/14 30/30/14 29/29/14
f 30/30/15 32/32/15 31/31/15
f 32/32/16 34/34/16 33/33/16
f 34/34/17 36/36/17 35/35/17
f 36/36/18 38/38/18 37/37/18
f 38/38/19 40/40/19 39/39/19
f 40/40/20 42/42/20 41/41/20
f 42/42/21 44/44/21 43/43/21
f 44/44/22 46/46/22 45/45/22
f 46/46/23 48/48/23 47/47/23
f 48/48/24 50/50/24 49/49/24
f 50/50/25 52/52/25 51/51/25
f 52/52/26 54/54/26 53/53/26
f 54/54/27 56/56/27 55/55/27
f 56/56/28 58/58/28 57/57/28
f 58/58/29 60/60/29 59/59/29
f 60/60/30 62/65/30 61/61/30
f 6/72/31 4/73/31 2/74/31
f 2/74/31 64/75/31 6/72/31
f 64/75/31 62/76/31 6/72/31
f 62/76/31 60/77/31 58/78/31
f 58/78/31 56/79/31 54/62/31
f 54/62/31 52/80/31 50/81/31
f 50/81/31 48/82/31 54/62/31
f 48/82/31 46/83/31 54/62/31
f 46/83/31 44/84/31 38/63/31
f 44/84/31 42/85/31 38/63/31
f 42/85/31 40/86/31 38/63/31
f 38/63/31 36/87/31 34/88/31
f 34/88/31 32/89/31 30/90/31
f 30/90/31 28/91/31 26/92/31
f 26/92/31 24/93/31 22/64/31
f 22/64/31 20/94/31 18/95/31
f 18/95/31 16/96/31 22/64/31
f 16/96/31 14/97/31 22/64/31
f 14/97/31 12/98/31 10/99/31
f 10/99/31 8/100/31 6/72/31
f 62/76/31 58/78/31 6/72/31
f 58/78/31 54/62/31 6/72/31
f 38/63/31 34/88/31 22/64/31
f 34/88/31 30/90/31 22/64/31
f 30/90/31 26/92/31 22/64/31
f 14/97/31 10/99/31 22/64/31
f 10/99/31 6/72/31 22/64/31
f 54/62/31 46/83/31 38/63/31
f 6/72/31 54/62/31 22/64/31
f 62/65/32 64/67/32 63/66/32
f 64/67/33 2/101/33 1/68/33
f 63/102/34 1/103/34 3/104/34
f 3/104/34 5/105/34 7/106/34
f 7/106/34 9/107/34 11/108/34
f 11/108/34 13/109/34 7/106/34
f 13/109/34 15/69/34 7/106/34
f 15/69/34 17/110/34 19/111/34
f 19/111/34 21/112/34 15/69/34
f 21/112/34 23/113/34 15/69/34
f 23/113/34 25/114/34 31/70/34
f 25/114/34 27/115/34 31/70/34
f 27/115/34 29/116/34 31/70/34
f 31/70/34 33/117/34 35/118/34
f 35/118/34 37/119/34 39/120/34
f 39/120/34 41/121/34 43/122/34
f 43/122/34 45/123/34 47/71/34
f 47/71/34 49/124/34 51/125/34
f 51/125/34 53/126/34 55/127/34
f 55/127/34 57/128/34 63/102/34
f 57/128/34 59/129/34 63/102/34
f 59/129/34 61/130/34 63/102/34
f 63/102/34 3/104/34 7/106/34
f 31/70/34 35/118/34 47/71/34
f 35/118/34 39/120/34 47/71/34
f 39/120/34 43/122/34 47/71/34
f 47/71/34 51/125/34 63/102/34
f 51/125/34 55/127/34 63/102/34
f 63/102/34 7/106/34 15/69/34
f 15/69/34 23/113/34 31/70/34
f 63/102/34 15/69/34 47/71/34
