# Blender v2.83.2 OBJ File: ''
# www.blender.org
mtllib kuboVero.mtl
o Cubo
v -1.000000 -1.000000 1.000000
v -1.000000 1.000000 1.000000
v -1.000000 -1.000000 -1.000000
v -1.000000 1.000000 -1.000000
v 1.000000 -1.000000 1.000000
v 1.000000 1.000000 1.000000
v 1.000000 -1.000000 -1.000000
v 1.000000 1.000000 -1.000000
vt 0.734015 0.720873
vt 0.698749 0.756139
vt 0.698749 0.720873
vt 0.734015 0.756139
vt 0.698749 0.791404
vt 0.734015 0.791404
vt 0.698749 0.826670
vt 0.734015 0.826670
vt 0.698749 0.861936
vt 0.663484 0.826670
vt 0.663484 0.791404
vt 0.769281 0.791404
vt 0.734015 0.861936
vt 0.769281 0.826670
vn -1.0000 0.0000 0.0000
vn 0.0000 0.0000 -1.0000
vn 1.0000 0.0000 0.0000
vn 0.0000 0.0000 1.0000
vn 0.0000 -1.0000 0.0000
vn 0.0000 1.0000 0.0000
usemtl None
s off
f 2/1/1 3/2/1 1/3/1
f 4/4/2 7/5/2 3/2/2
f 8/6/3 5/7/3 7/5/3
f 6/8/4 1/9/4 5/7/4
f 7/5/5 1/10/5 3/11/5
f 4/12/6 6/8/6 8/6/6
f 2/1/1 4/4/1 3/2/1
f 4/4/2 8/6/2 7/5/2
f 8/6/3 6/8/3 5/7/3
f 6/8/4 2/13/4 1/9/4
f 7/5/5 5/7/5 1/10/5
f 4/12/6 2/14/6 6/8/6
