# Blender v2.83.2 OBJ File: ''
# www.blender.org
mtllib line.mtl
o Cube
v 0.340000 0.060000 -1.000000
v 0.340000 -0.060000 -1.000000
v 0.340000 0.060000 1.000000
v 0.340000 -0.060000 1.000000
v -0.340000 0.060000 -1.000000
v -0.340000 -0.060000 -1.000000
v -0.340000 0.060000 1.000000
v -0.340000 -0.060000 1.000000
vt 0.906384 0.318729
vt 0.894052 0.331061
vt 0.894052 0.318729
vt 0.881719 0.343394
vt 0.881719 0.331061
vt 0.894052 0.294064
vt 0.881719 0.306396
vt 0.881719 0.294064
vt 0.881719 0.318729
vt 0.869387 0.331061
vt 0.869387 0.318729
vt 0.894052 0.306396
vt 0.906384 0.331061
vt 0.894052 0.343394
vn 0.0000 1.0000 0.0000
vn 0.0000 0.0000 1.0000
vn -1.0000 0.0000 0.0000
vn 0.0000 -1.0000 0.0000
vn 1.0000 0.0000 0.0000
vn 0.0000 0.0000 -1.0000
usemtl Material
s off
f 5/1/1 3/2/1 1/3/1
f 3/2/2 8/4/2 4/5/2
f 7/6/3 6/7/3 8/8/3
f 2/9/4 8/10/4 6/11/4
f 1/3/5 4/5/5 2/9/5
f 5/12/6 2/9/6 6/7/6
f 5/1/1 7/13/1 3/2/1
f 3/2/2 7/14/2 8/4/2
f 7/6/3 5/12/3 6/7/3
f 2/9/4 4/5/4 8/10/4
f 1/3/5 3/2/5 4/5/5
f 5/12/6 1/3/6 2/9/6
