# Blender v2.83.2 OBJ File: ''
# www.blender.org
mtllib Ramp2.mtl
o Plane
v -0.300000 -0.260000 0.740000
v -0.300000 0.480000 0.740000
v 0.760000 -0.260000 0.740000
v -0.300000 -0.260000 0.740000
v -0.300000 0.480000 0.740000
v 0.760000 -0.260000 0.740000
v -0.300000 -0.260000 0.740000
v -0.300000 0.480000 0.740000
v 0.760000 -0.260000 0.740000
v -0.300000 -0.260000 0.740000
v -0.300000 0.480000 0.740000
v 0.760000 -0.260000 0.740000
v -0.300000 -0.260000 -0.749828
v -0.300000 0.480000 -0.749828
v 0.760000 -0.260000 -0.749828
vt 0.769479 0.299915
vt 0.776511 0.306711
vt 0.776071 0.306642
vt 0.767172 0.308861
vt 0.767417 0.308551
vt 0.769351 0.299543
vt 0.776862 0.306805
vt 0.766944 0.309091
vt 0.769254 0.299194
vt 0.777236 0.306906
vt 0.766700 0.309335
vt 0.769151 0.298821
vt 0.661188 0.214413
vt 0.758326 0.275137
vt 0.661188 0.275137
vt 0.760979 0.298821
vt 0.762026 0.308851
vt 0.757352 0.309518
vt 0.766695 0.315799
vt 0.762315 0.318280
vt 0.766695 0.301485
vt 0.777236 0.298821
vt 0.758326 0.214413
vn 0.0000 0.0000 1.0000
vn 0.5724 0.8200 0.0000
vn -1.0000 0.0000 -0.0000
vn 0.0000 -1.0000 0.0000
vn 0.0000 0.0000 -1.0000
usemtl None
s off
f 3/1/1 5/2/1 2/3/1
f 2/3/1 4/4/1 1/5/1
f 1/5/1 6/6/1 3/1/1
f 6/6/1 8/7/1 5/2/1
f 5/2/1 7/8/1 4/4/1
f 4/4/1 9/9/1 6/6/1
f 9/9/1 11/10/1 8/7/1
f 8/7/1 10/11/1 7/8/1
f 7/8/1 12/12/1 9/9/1
f 12/13/2 14/14/2 11/15/2
f 11/16/3 13/17/3 10/18/3
f 10/18/4 15/19/4 12/20/4
f 15/19/5 13/17/5 14/21/5
f 12/12/1 11/10/1 10/22/1
f 3/1/1 6/6/1 5/2/1
f 2/3/1 5/2/1 4/4/1
f 1/5/1 4/4/1 6/6/1
f 6/6/1 9/9/1 8/7/1
f 5/2/1 8/7/1 7/8/1
f 4/4/1 7/8/1 9/9/1
f 9/9/1 12/12/1 11/10/1
f 8/7/1 11/10/1 10/11/1
f 7/8/1 10/11/1 12/12/1
f 12/13/2 15/23/2 14/14/2
f 11/16/3 14/21/3 13/17/3
f 10/18/4 13/17/4 15/19/4
