# Blender v2.83.2 OBJ File: ''
# www.blender.org
mtllib Ramp.mtl
o Plane
v -0.300000 -0.260000 0.740000
v -0.300000 0.480000 0.740000
v 0.760000 -0.260000 0.740000
v -0.300000 -0.260000 0.740000
v -0.300000 0.480000 0.740000
v 0.760000 -0.260000 0.740000
v -0.300000 -0.260000 0.740000
v -0.300000 0.480000 0.740000
v 0.760000 -0.260000 0.740000
v -0.300000 -0.260000 0.740000
v -0.300000 0.480000 0.740000
v 0.760000 -0.260000 0.740000
v -0.300000 -0.260000 -0.749828
v -0.300000 0.480000 -0.749828
v 0.760000 -0.260000 -0.749828
vt 0.000000 0.000000
vt 0.000000 0.000000
vt 0.000000 0.000000
vt 0.000000 0.000000
vt 0.000000 0.000000
vt 0.000000 0.000000
vt 0.000000 0.000000
vt 0.000000 0.000000
vt 0.000000 0.000000
vt 0.000000 0.000000
vt 0.000000 0.000000
vt 0.000000 0.000000
vt 0.000000 0.000000
vt 0.000000 0.000000
vt 0.000000 0.000000
vn 0.0000 0.0000 1.0000
vn 0.5724 0.8200 0.0000
vn -1.0000 0.0000 -0.0000
vn 0.0000 -1.0000 0.0000
vn 0.0000 0.0000 -1.0000
usemtl None
s off
f 3/1/1 5/2/1 2/3/1
f 2/3/1 4/4/1 1/5/1
f 1/5/1 6/6/1 3/1/1
f 6/6/1 8/7/1 5/2/1
f 5/2/1 7/8/1 4/4/1
f 4/4/1 9/9/1 6/6/1
f 9/9/1 11/10/1 8/7/1
f 8/7/1 10/11/1 7/8/1
f 7/8/1 12/12/1 9/9/1
f 12/12/2 14/13/2 11/10/2
f 11/10/3 13/14/3 10/11/3
f 10/11/4 15/15/4 12/12/4
f 15/15/5 13/14/5 14/13/5
f 12/12/1 11/10/1 10/11/1
f 3/1/1 6/6/1 5/2/1
f 2/3/1 5/2/1 4/4/1
f 1/5/1 4/4/1 6/6/1
f 6/6/1 9/9/1 8/7/1
f 5/2/1 8/7/1 7/8/1
f 4/4/1 7/8/1 9/9/1
f 9/9/1 12/12/1 11/10/1
f 8/7/1 11/10/1 10/11/1
f 7/8/1 10/11/1 12/12/1
f 12/12/2 15/15/2 14/13/2
f 11/10/3 14/13/3 13/14/3
f 10/11/4 13/14/4 15/15/4
